<svg width="1544" height="800" viewBox="0 0 1544 800" fill="none" xmlns="http://www.w3.org/2000/svg">
<path d="M1014.53 315.964C1011.7 292.098 1000.24 273.571 980.145 260.382C960.048 247.193 935.397 240.599 906.193 240.599C884.84 240.599 866.155 244.053 850.14 250.961C834.282 257.87 821.878 267.369 812.929 279.459C804.136 291.549 799.74 305.287 799.74 320.674C799.74 333.549 802.802 344.618 808.925 353.882C815.206 362.988 823.213 370.603 832.948 376.727C842.682 382.693 852.888 387.639 863.565 391.564C874.242 395.333 884.055 398.394 893.004 400.749L941.992 413.938C954.552 417.235 968.526 421.789 983.913 427.598C999.457 433.408 1014.29 441.337 1028.43 451.385C1042.71 461.277 1054.49 473.995 1063.75 489.539C1073.02 505.083 1077.65 524.16 1077.65 546.769C1077.65 572.833 1070.82 596.385 1057.16 617.424C1043.66 638.463 1023.87 655.185 997.809 667.589C971.902 679.993 940.421 686.195 903.367 686.195C868.825 686.195 838.914 680.621 813.635 669.473C788.514 658.325 768.73 642.781 754.285 622.841C739.998 602.9 731.911 579.741 730.027 553.364H790.319C791.889 571.577 798.013 586.65 808.69 598.583C819.523 610.358 833.183 619.151 849.669 624.96C866.312 630.613 884.212 633.439 903.367 633.439C925.662 633.439 945.681 629.828 963.423 622.605C981.166 615.226 995.218 605.02 1005.58 591.988C1015.94 578.799 1021.12 563.412 1021.12 545.827C1021.12 529.812 1016.65 516.78 1007.7 506.732C998.751 496.683 986.975 488.518 972.373 482.238C957.771 475.957 941.992 470.462 925.034 465.752L865.684 448.795C828.002 437.961 798.17 422.495 776.188 402.398C754.207 382.301 743.216 356.001 743.216 323.5C743.216 296.494 750.517 272.943 765.119 252.845C779.878 232.591 799.662 216.89 824.469 205.742C849.434 194.438 877.303 188.785 908.077 188.785C939.165 188.785 966.799 194.359 990.979 205.507C1015.16 216.498 1034.31 231.571 1048.44 250.726C1062.73 269.881 1070.27 291.627 1071.05 315.964H1014.53Z" fill="white"/>
<path d="M1354.33 529.812V315.964H1409.91V677.716H1354.33V616.482H1350.56C1342.08 634.852 1328.89 650.475 1311 663.349C1293.1 676.067 1270.49 682.426 1243.17 682.426C1220.56 682.426 1200.46 677.48 1182.87 667.589C1165.29 657.54 1151.47 642.467 1141.42 622.37C1131.38 602.115 1126.35 576.601 1126.35 545.827V315.964H1181.93V542.059C1181.93 568.437 1189.31 589.476 1204.07 605.177C1218.99 620.878 1237.99 628.729 1261.07 628.729C1274.88 628.729 1288.94 625.196 1303.22 618.13C1317.67 611.065 1329.76 600.231 1339.49 585.629C1349.38 571.027 1354.33 552.422 1354.33 529.812Z" fill="white"/>
<path d="M1471.92 677.716V315.964H1527.5V677.716H1471.92ZM1500.18 255.672C1489.35 255.672 1480.01 251.982 1472.16 244.602C1464.46 237.223 1460.62 228.352 1460.62 217.989C1460.62 207.626 1464.46 198.755 1472.16 191.376C1480.01 183.996 1489.35 180.307 1500.18 180.307C1511.02 180.307 1520.28 183.996 1527.97 191.376C1535.82 198.755 1539.75 207.626 1539.75 217.989C1539.75 228.352 1535.82 237.223 1527.97 244.602C1520.28 251.982 1511.02 255.672 1500.18 255.672Z" fill="white"/>
<path fill-rule="evenodd" clip-rule="evenodd" d="M1010.85 320.115L1010.41 316.458C1007.73 293.808 996.943 276.371 977.869 263.854C958.581 251.196 934.763 244.75 906.192 244.75C885.283 244.75 867.18 248.132 851.788 254.771C836.504 261.43 824.724 270.502 816.27 281.917C808.015 293.273 803.884 306.148 803.884 320.68C803.884 332.859 806.767 343.092 812.359 351.568C818.3 360.173 825.876 367.385 835.133 373.212C844.622 379.026 854.566 383.845 864.969 387.671C875.551 391.405 885.246 394.428 894.058 396.747L894.08 396.753L943.043 409.935C943.046 409.936 943.05 409.937 943.053 409.938C955.78 413.28 969.888 417.88 985.37 423.724C1001.26 429.662 1016.4 437.759 1030.8 447.998C1045.59 458.24 1057.76 471.399 1067.31 487.423C1077.04 503.751 1081.79 523.604 1081.79 546.776C1081.79 573.603 1074.75 597.94 1060.64 619.676C1046.66 641.456 1026.24 658.652 999.597 671.334C972.994 684.071 940.866 690.346 903.366 690.346C868.387 690.346 837.882 684.703 811.961 673.272L811.953 673.268C786.242 661.859 765.85 645.878 750.927 625.279L750.915 625.262C736.146 604.651 727.826 580.745 725.891 553.665L725.574 549.225H794.121L794.448 553.014C795.951 570.455 801.775 584.637 811.759 595.805C822.085 607.021 835.137 615.448 851.024 621.05C867.195 626.539 884.632 629.3 903.366 629.3C925.204 629.3 944.673 625.765 961.84 618.78C979.028 611.63 992.47 601.819 1002.33 589.42C1012.08 577.002 1016.98 562.532 1016.98 545.834C1016.98 530.631 1012.75 518.645 1004.6 509.495C996.124 499.974 984.879 492.136 970.734 486.052C956.321 479.853 940.719 474.418 923.924 469.752L923.894 469.744L864.544 452.787L864.538 452.785C826.427 441.828 795.968 426.107 773.39 405.464C750.466 384.504 739.07 357.053 739.07 323.507C739.07 295.706 746.603 271.283 761.764 250.415L761.768 250.411C776.986 229.526 797.358 213.387 822.763 201.97C848.326 190.396 876.787 184.647 908.076 184.647C939.659 184.647 967.898 190.31 992.703 201.744C1017.44 212.991 1037.18 228.483 1051.77 248.263C1066.57 268.109 1074.38 290.674 1075.2 315.837L1075.33 320.115H1010.85ZM1048.44 250.732C1034.31 231.577 1015.16 216.504 990.977 205.513C966.798 194.365 939.164 188.792 908.076 188.792C877.302 188.792 849.432 194.444 824.468 205.749C799.66 216.896 779.877 232.598 765.118 252.852C750.516 272.949 743.215 296.501 743.215 323.507C743.215 356.008 754.206 382.307 776.187 402.404C798.169 422.502 828.001 437.967 865.683 448.801L925.033 465.758C941.99 470.469 957.77 475.964 972.372 482.244C986.974 488.525 998.749 496.689 1007.7 506.738C1016.65 516.787 1021.12 529.819 1021.12 545.834C1021.12 563.419 1015.94 578.806 1005.58 591.995C995.217 605.027 981.164 615.232 963.422 622.612C945.68 629.834 925.661 633.445 903.366 633.445C884.21 633.445 866.311 630.619 849.668 624.967C833.182 619.158 819.522 610.365 808.688 598.589C798.011 586.656 791.888 571.583 790.318 553.37H730.026C730.125 554.761 730.242 556.142 730.376 557.515C732.78 582.181 740.749 603.958 754.284 622.847C768.729 642.788 788.512 658.332 813.634 669.479C838.913 680.627 868.823 686.201 903.366 686.201C940.42 686.201 971.901 679.999 997.807 667.595C1023.87 655.191 1043.65 638.47 1057.16 617.43C1070.82 596.391 1077.65 572.839 1077.65 546.776C1077.65 524.166 1073.02 505.089 1063.75 489.545C1054.49 474.001 1042.71 461.283 1028.42 451.392C1014.29 441.343 999.456 433.414 983.912 427.605C968.525 421.795 954.551 417.242 941.99 413.945L893.003 400.756C884.053 398.401 874.24 395.339 863.563 391.571C852.887 387.645 842.681 382.7 832.946 376.733C823.212 370.61 815.204 362.995 808.924 353.888C802.8 344.625 799.739 333.555 799.739 320.68C799.739 305.293 804.135 291.555 812.927 279.465C821.877 267.375 834.281 257.876 850.139 250.968C866.154 244.059 884.838 240.605 906.192 240.605C935.396 240.605 960.046 247.2 980.144 260.388C1000.24 273.577 1011.7 292.105 1014.53 315.97H1071.05C1071.01 314.58 1070.94 313.198 1070.85 311.825C1069.38 289.158 1061.92 268.793 1048.44 250.732ZM1350.18 311.825H1414.06V681.867H1350.18V626.346C1341.45 641.932 1329.17 655.39 1313.41 666.721L1313.39 666.735C1294.64 680.061 1271.13 686.578 1243.17 686.578C1219.93 686.578 1199.12 681.489 1180.84 671.208L1180.82 671.194C1162.44 660.696 1148.09 644.976 1137.72 624.23L1137.71 624.218C1127.29 603.223 1122.2 577.028 1122.2 545.834V311.825H1186.08V542.065C1186.08 567.632 1193.2 587.568 1207.08 602.336C1221.16 617.15 1239.04 624.59 1261.06 624.59C1274.15 624.59 1287.58 621.248 1301.38 614.421L1301.4 614.413C1315.13 607.699 1326.68 597.385 1336.04 583.336L1336.06 583.311C1345.37 569.565 1350.18 551.832 1350.18 529.818V311.825ZM1204.07 605.184C1189.31 589.483 1181.93 568.443 1181.93 542.065V315.97H1126.35V545.834C1126.35 576.608 1131.37 602.122 1141.42 622.376C1151.47 642.474 1165.29 657.547 1182.87 667.595C1200.46 677.487 1220.56 682.433 1243.17 682.433C1270.49 682.433 1293.09 676.074 1310.99 663.356C1328.63 650.67 1341.69 635.317 1350.18 617.296C1350.31 617.028 1350.44 616.758 1350.56 616.488H1354.33V677.722H1409.91V315.97H1354.33V529.818C1354.33 552.428 1349.38 571.034 1339.49 585.636C1329.76 600.238 1317.67 611.071 1303.22 618.137C1288.93 625.202 1274.88 628.735 1261.06 628.735C1237.98 628.735 1218.99 620.885 1204.07 605.184ZM1467.77 681.867V311.825H1531.65V681.867H1467.77ZM1469.32 247.629L1469.29 247.6C1460.8 239.464 1456.47 229.524 1456.47 217.996C1456.47 206.468 1460.8 196.527 1469.29 188.391L1469.32 188.362C1477.94 180.256 1488.3 176.168 1500.18 176.168C1512.06 176.168 1522.35 180.254 1530.83 188.378C1539.46 196.503 1543.89 206.446 1543.89 217.996C1543.89 229.545 1539.46 239.489 1530.83 247.614C1522.35 255.738 1512.06 259.823 1500.18 259.823C1488.3 259.823 1477.94 255.736 1469.32 247.629ZM1527.97 244.609C1535.82 237.229 1539.75 228.358 1539.75 217.996C1539.75 207.633 1535.82 198.762 1527.97 191.382C1520.28 184.003 1511.02 180.313 1500.18 180.313C1489.35 180.313 1480.01 184.003 1472.15 191.382C1464.46 198.762 1460.61 207.633 1460.61 217.996C1460.61 228.358 1464.46 237.229 1472.15 244.609C1480.01 251.988 1489.35 255.678 1500.18 255.678C1511.02 255.678 1520.28 251.988 1527.97 244.609ZM1471.92 677.722H1527.5V315.97H1471.92V677.722Z" fill="white"/>
<path fill-rule="evenodd" clip-rule="evenodd" d="M500.808 333.65L500.794 333.685C533.431 374.608 552.935 426.441 552.935 482.817C552.935 540.031 532.846 592.567 499.329 633.768L496.443 637.316L495.678 632.807C495.027 628.973 494.262 625.102 493.374 621.2C476.599 547.498 421.946 484.298 331.994 433.126C271.251 398.665 236.482 357.17 227.353 310.024C221.457 279.538 225.841 248.916 234.311 222.687C242.779 196.467 255.376 174.499 266.078 161.273L266.085 161.265L301.076 118.478C307.213 110.974 318.697 110.974 324.833 118.478L500.808 333.65ZM556.154 290.902L556.16 290.886L321.623 4.10672C317.145 -1.36891 308.762 -1.36891 304.284 4.10672L69.7444 290.888L69.7508 290.904L68.9877 291.851C25.828 345.408 0 413.47 0 487.559C0 660.112 140.111 800 312.953 800C485.796 800 625.907 660.112 625.907 487.559C625.907 413.47 600.079 345.408 556.919 291.852L556.154 290.902ZM125.863 332.726L125.872 332.714L146.85 307.063L147.484 311.798C147.986 315.55 148.595 319.32 149.317 323.107C162.891 394.325 211.38 453.708 292.448 499.699C362.916 539.805 403.944 585.924 415.766 636.504C420.698 657.613 421.577 678.381 419.441 696.54L419.309 697.663L418.293 698.16C386.488 713.698 350.734 722.419 312.946 722.419C180.407 722.419 72.9573 615.148 72.9573 482.817C72.9573 426.002 92.7652 373.796 125.863 332.726Z" fill="white"/>
</svg>
